<svg xmlns="http://www.w3.org/2000/svg" xmlns:xlink="http://www.w3.org/1999/xlink">
  <defs>
    <symbol id="search" viewBox="0 0 20 20" fill="none" xmlns="http://www.w3.org/2000/svg">
      <path d="M19.9399 18.5624L13.4474 12.0699C14.4549 10.7675 14.9999 9.17496 14.9999 7.49997C14.9999 5.49498 14.2174 3.61498 12.8024 2.19749C11.3875 0.779996 9.50246 0 7.49997 0C5.49748 0 3.61248 0.782496 2.19749 2.19749C0.779996 3.61248 0 5.49498 0 7.49997C0 9.50246 0.782496 11.3875 2.19749 12.8024C3.61248 14.2199 5.49498 14.9999 7.49997 14.9999C9.17496 14.9999 10.765 14.4549 12.0674 13.4499L18.5599 19.9399C18.579 19.959 18.6016 19.9741 18.6264 19.9844C18.6513 19.9947 18.678 20 18.7049 20C18.7318 20 18.7585 19.9947 18.7834 19.9844C18.8083 19.9741 18.8309 19.959 18.8499 19.9399L19.9399 18.8524C19.959 18.8334 19.9741 18.8108 19.9844 18.7859C19.9947 18.761 20 18.7344 20 18.7074C20 18.6805 19.9947 18.6538 19.9844 18.6289C19.9741 18.6041 19.959 18.5815 19.9399 18.5624ZM11.46 11.46C10.4 12.5174 8.99496 13.0999 7.49997 13.0999C6.00497 13.0999 4.59998 12.5174 3.53998 11.46C2.48249 10.4 1.89999 8.99496 1.89999 7.49997C1.89999 6.00497 2.48249 4.59748 3.53998 3.53998C4.59998 2.48249 6.00497 1.89999 7.49997 1.89999C8.99496 1.89999 10.4025 2.47999 11.46 3.53998C12.5174 4.59998 13.0999 6.00497 13.0999 7.49997C13.0999 8.99496 12.5174 10.4025 11.46 11.46Z" fill="white"/>
    </symbol>
    <symbol id="login" viewBox="0 0 30 30" fill="none" xmlns="http://www.w3.org/2000/svg">
      <path d="M15 13.2105C11.3657 13.2105 8.5 10.4201 8.5 7.10526C8.5 3.79044 11.3657 1 15 1C18.6343 1 21.5 3.79044 21.5 7.10526C21.5 10.4201 18.6343 13.2105 15 13.2105ZM29 28.4211V29H28.3333H1V28.4211C1 22.9303 5.73408 18.3684 11.6667 18.3684H18.3333C24.2643 18.3684 29 22.9304 29 28.4211Z" stroke="white" stroke-width="2"/>
    </symbol>
    <svg id="carbon_charging-station" viewBox="0 0 40 40" fill="none" xmlns="http://www.w3.org/2000/svg">
      <path d="M14.8212 26.8925L12.6787 25.6075L15.2925 21.25H9.04248L13.9287 13.1075L16.0712 14.3925L13.4575 18.75H19.7075L14.8212 26.8925Z" fill="white"/>
      <path d="M37.5 8.75H36.25V5H33.75V8.75H32.5V16.25H33.75V30.625C33.75 31.1223 33.5525 31.5992 33.2008 31.9508C32.8492 32.3025 32.3723 32.5 31.875 32.5C31.3777 32.5 30.9008 32.3025 30.5492 31.9508C30.1975 31.5992 30 31.1223 30 30.625V20C30 19.6685 29.8683 19.3505 29.6339 19.1161C29.3995 18.8817 29.0815 18.75 28.75 18.75H23.75V6.25C23.75 5.91848 23.6183 5.60054 23.3839 5.36612C23.1495 5.1317 22.8315 5 22.5 5H6.25C5.91848 5 5.60054 5.1317 5.36612 5.36612C5.1317 5.60054 5 5.91848 5 6.25V32.5H3.75C3.05964 32.5 2.5 33.0596 2.5 33.75C2.5 34.4404 3.05964 35 3.75 35H25C25.6904 35 26.25 34.4404 26.25 33.75C26.25 33.0596 25.6904 32.5 25 32.5H23.75V21.25H27.5V30.625C27.5 31.7853 27.9609 32.8981 28.7814 33.7186C29.6019 34.5391 30.7147 35 31.875 35C33.0353 35 34.1481 34.5391 34.9686 33.7186C35.7891 32.8981 36.25 31.7853 36.25 30.625V16.25H37.5V8.75ZM21.25 32.5H7.5V7.5H21.25V32.5Z" fill="white"/>
    </svg>
    <symbol id="law" viewBox="0 0 40 40" fill="none" xmlns="http://www.w3.org/2000/svg">
      <g clip-path="url(#clip0_6_149)">
        <path d="M24.2844 34.1033H21.6314V9.7895H32.8123L28.0763 17.3045C27.8361 17.6856 27.9503 18.1894 28.3315 18.4295C28.4666 18.5147 28.6169 18.5551 28.7656 18.5551C29.0364 18.5551 29.3013 18.4203 29.4563 18.1745L33.5637 11.6567L37.6709 18.1745C37.9112 18.5555 38.415 18.6698 38.796 18.4295C39.177 18.1894 39.2911 17.6856 39.051 17.3045L34.3152 9.7895H34.375C35.0732 9.7895 35.6393 9.22341 35.6393 8.52524C35.6393 7.82715 35.0733 7.26106 34.375 7.26106H25.0745C24.5493 6.49706 23.7742 5.91863 22.8667 5.64402C22.737 4.17437 21.5035 3.02176 20.0001 3.02176C18.4966 3.02176 17.2631 4.17437 17.1334 5.64402C16.2259 5.91863 15.4508 6.49706 14.9256 7.26106H5.62512C4.92686 7.26106 4.36077 7.82715 4.36077 8.52524C4.36077 9.22341 4.92677 9.7895 5.62512 9.7895H5.68495L0.948946 17.3045C0.708772 17.6856 0.823033 18.1894 1.20408 18.4295C1.33921 18.5147 1.48956 18.5551 1.63816 18.5551C1.90895 18.5551 2.17399 18.4203 2.32903 18.1745L6.43642 11.6567L10.5437 18.1745C10.7839 18.5555 11.2876 18.6698 11.6687 18.4295C12.0498 18.1894 12.164 17.6856 11.9239 17.3045L7.18799 9.7895H18.3689V34.1031H15.7159C14.1282 34.1031 12.8409 35.3905 12.8409 36.9782H27.1593C27.1593 35.3905 25.8721 34.1033 24.2844 34.1033Z" fill="white"/>
        <path d="M6.43635 25.6936C3.27393 25.6936 0.690111 23.1641 0.602306 20.0225H12.2704C12.1826 23.1641 9.59869 25.6936 6.43635 25.6936Z" stroke="white" stroke-width="1.2"/>
        <path d="M33.5639 25.6936C30.4014 25.6936 27.8176 23.1641 27.7297 20.0225H39.3978C39.31 23.1641 36.7262 25.6936 33.5639 25.6936Z" stroke="white" stroke-width="1.2"/>
      </g>
      <defs>
        <clipPath id="clip0_6_149">
        <rect width="40" height="40" fill="white"/>
        </clipPath>
      </defs>
    </symbol>
    <symbol id="burger-menu" viewBox="0 0 40 40" fill="none" xmlns="http://www.w3.org/2000/svg">
      <path fill-rule="evenodd" clip-rule="evenodd" d="M6 10C6 9.46957 6.21071 8.96086 6.58579 8.58579C6.96086 8.21071 7.46957 8 8 8H32C32.5304 8 33.0391 8.21071 33.4142 8.58579C33.7893 8.96086 34 9.46957 34 10C34 10.5304 33.7893 11.0391 33.4142 11.4142C33.0391 11.7893 32.5304 12 32 12H8C7.46957 12 6.96086 11.7893 6.58579 11.4142C6.21071 11.0391 6 10.5304 6 10ZM6 20C6 19.4696 6.21071 18.9609 6.58579 18.5858C6.96086 18.2107 7.46957 18 8 18H32C32.5304 18 33.0391 18.2107 33.4142 18.5858C33.7893 18.9609 34 19.4696 34 20C34 20.5304 33.7893 21.0391 33.4142 21.4142C33.0391 21.7893 32.5304 22 32 22H8C7.46957 22 6.96086 21.7893 6.58579 21.4142C6.21071 21.0391 6 20.5304 6 20ZM6 30C6 29.4696 6.21071 28.9609 6.58579 28.5858C6.96086 28.2107 7.46957 28 8 28H20C20.5304 28 21.0391 28.2107 21.4142 28.5858C21.7893 28.9609 22 29.4696 22 30C22 30.5304 21.7893 31.0391 21.4142 31.4142C21.0391 31.7893 20.5304 32 20 32H8C7.46957 32 6.96086 31.7893 6.58579 31.4142C6.21071 31.0391 6 30.5304 6 30Z" fill="white"/>
    </symbol>
    <symbol id="arrow-breadcrumbs" viewBox="0 0 10 18" fill="none" xmlns="http://www.w3.org/2000/svg">
      <path d="M0.343312 17.6477C0.451414 17.7594 0.579835 17.848 0.721218 17.9084C0.862601 17.9689 1.01417 18 1.16724 18C1.32032 18 1.47188 17.9689 1.61327 17.9084C1.75465 17.848 1.88307 17.7594 1.99117 17.6477L9.72774 9.6764C9.81404 9.58765 9.88252 9.48224 9.92923 9.3662C9.97595 9.25016 10 9.12576 10 9.00013C10 8.8745 9.97595 8.7501 9.92923 8.63406C9.88252 8.51801 9.81404 8.4126 9.72774 8.32386L1.99117 0.352521C1.53499 -0.117511 0.799501 -0.117511 0.343314 0.352521C-0.112873 0.822551 -0.112874 1.58036 0.343314 2.05039L7.08371 9.00492L0.334005 15.9595C-0.112873 16.4199 -0.112875 17.1873 0.343312 17.6477Z" fill="white"/>
    </symbol>

  </defs>
</svg>
