<svg xmlns="http://www.w3.org/2000/svg" xmlns:xlink="http://www.w3.org/1999/xlink"><defs><symbol id="search" viewBox="0 0 20 20" fill="none" xmlns="http://www.w3.org/2000/svg"><path d="M19.94 18.562l-6.493-6.492A7.432 7.432 0 0015 7.5a7.455 7.455 0 00-2.198-5.303A7.444 7.444 0 007.5 0a7.455 7.455 0 00-5.303 2.197A7.44 7.44 0 000 7.5c0 2.002.782 3.887 2.197 5.302A7.44 7.44 0 007.5 15a7.438 7.438 0 004.567-1.55l6.493 6.49a.206.206 0 00.29 0l1.09-1.088a.203.203 0 00.044-.223.206.206 0 00-.044-.067zm-8.48-7.102A5.57 5.57 0 017.5 13.1a5.57 5.57 0 01-3.96-1.64A5.57 5.57 0 011.9 7.5c0-1.495.582-2.903 1.64-3.96A5.57 5.57 0 017.5 1.9c1.495 0 2.902.58 3.96 1.64A5.57 5.57 0 0113.1 7.5a5.566 5.566 0 01-1.64 3.96z" fill="#fff"/></symbol><symbol id="login" viewBox="0 0 30 30" fill="none" xmlns="http://www.w3.org/2000/svg"><path d="M15 13.21c-3.634 0-6.5-2.79-6.5-6.105C8.5 3.79 11.366 1 15 1s6.5 2.79 6.5 6.105c0 3.315-2.866 6.105-6.5 6.105zm14 15.211V29H1v-.579c0-5.49 4.734-10.053 10.667-10.053h6.666C24.264 18.368 29 22.93 29 28.421z" stroke="#fff" stroke-width="2"/></symbol><symbol id="law" viewBox="0 0 40 40" fill="none" xmlns="http://www.w3.org/2000/svg"><g clip-path="url(#clip0_6_149)"><path d="M24.284 34.103h-2.653V9.79h11.181l-4.736 7.516a.816.816 0 001.38.87l4.108-6.518 4.107 6.517a.816.816 0 001.38-.87L34.315 9.79h.06a1.264 1.264 0 000-2.529h-9.3a4.138 4.138 0 00-2.208-1.617 2.878 2.878 0 00-5.734 0 4.138 4.138 0 00-2.207 1.617h-9.3a1.264 1.264 0 100 2.529h.059L.949 17.305a.816.816 0 001.38.87l4.107-6.518 4.108 6.517a.816.816 0 001.38-.87L7.188 9.79h11.18v24.313h-2.652a2.875 2.875 0 00-2.875 2.875h14.318a2.875 2.875 0 00-2.875-2.875z" fill="#fff"/><path d="M6.436 25.694a5.844 5.844 0 01-5.834-5.671H12.27a5.844 5.844 0 01-5.834 5.67zm27.128 0a5.844 5.844 0 01-5.834-5.671h11.668a5.844 5.844 0 01-5.834 5.67z" stroke="#fff" stroke-width="1.2"/></g><defs><clipPath id="clip0_6_149"><path fill="#fff" d="M0 0h40v40H0z"/></clipPath></defs></symbol><symbol id="burger-menu" viewBox="0 0 40 40" fill="none" xmlns="http://www.w3.org/2000/svg"><path fill-rule="evenodd" clip-rule="evenodd" d="M6 10a2 2 0 012-2h24a2 2 0 010 4H8a2 2 0 01-2-2zm0 10a2 2 0 012-2h24a2 2 0 010 4H8a2 2 0 01-2-2zm0 10a2 2 0 012-2h12a2 2 0 010 4H8a2 2 0 01-2-2z" fill="#fff"/></symbol><symbol id="arrow-breadcrumbs" viewBox="0 0 10 18" fill="none" xmlns="http://www.w3.org/2000/svg"><path d="M.343 17.648a1.16 1.16 0 00.824.352 1.133 1.133 0 00.824-.352l7.737-7.972A.958.958 0 0010 9a.98.98 0 00-.272-.676L1.99.353a1.14 1.14 0 00-1.648 0 1.224 1.224 0 000 1.697l6.74 6.955-6.749 6.954a1.221 1.221 0 00.01 1.689z" fill="#fff"/></symbol><svg id="carbon_charging-station" viewBox="0 0 40 40" fill="none" xmlns="http://www.w3.org/2000/svg"><path d="M14.821 26.892l-2.142-1.284 2.614-4.358h-6.25l4.886-8.143 2.142 1.286-2.614 4.357h6.25l-4.886 8.142z" fill="#fff"/><path d="M37.5 8.75h-1.25V5h-2.5v3.75H32.5v7.5h1.25v14.375a1.875 1.875 0 11-3.75 0V20a1.25 1.25 0 00-1.25-1.25h-5V6.25A1.25 1.25 0 0022.5 5H6.25A1.25 1.25 0 005 6.25V32.5H3.75a1.25 1.25 0 100 2.5H25a1.25 1.25 0 100-2.5h-1.25V21.25h3.75v9.375a4.375 4.375 0 108.75 0V16.25h1.25v-7.5zM21.25 32.5H7.5v-25h13.75v25z" fill="#fff"/></svg></defs></svg>